<?xml version="1.0" encoding="utf-8"?>
<!-- Generator: Adobe Illustrator 22.1.0, SVG Export Plug-In . SVG Version: 6.00 Build 0)  -->
<svg version="1.1" id="Layer" xmlns="http://www.w3.org/2000/svg" xmlns:xlink="http://www.w3.org/1999/xlink" x="0px" y="0px"
	 viewBox="0 0 496 496" style="enable-background:new 0 0 496 496;" xml:space="preserve">
<style type="text/css">
	.st0{fill:url(#SVGID_1_);}
</style>
<linearGradient id="SVGID_1_" gradientUnits="userSpaceOnUse" x1="248.004" y1="492.0399" x2="248.004" y2="3.9681">
	<stop  offset="0.2" style="stop-color:#9F2FFF"/>
	<stop  offset="0.8" style="stop-color:#0BB1D3"/>
</linearGradient>
<path class="st0" d="M476.3,218v-50.1c9.1-3.3,15.7-11.9,15.7-22.2c0-13-10.6-23.6-23.6-23.6c-2.7,0-5.3,0.6-7.7,1.4l-35.3-44.1
	c2.3-3.6,3.6-7.8,3.6-12.4c0-13-10.6-23.6-23.6-23.6c-6.4,0-12.1,2.6-16.4,6.6l-39-19.5c0.1-1,0.3-1.9,0.3-2.9
	c0-13-10.6-23.6-23.6-23.6c-10.2,0-18.9,6.6-22.2,15.7h-89.5C211.8,10.6,203.1,4,192.9,4c-13,0-23.6,10.6-23.6,23.6
	c0,0.7,0.1,1.4,0.2,2.1l-62.1,28.6c-4.3-4.4-10.3-7.1-16.9-7.1c-13,0-23.6,10.6-23.6,23.6c0,4.6,1.4,8.8,3.6,12.4l-35.3,44.1
	c-2.4-0.8-5-1.4-7.7-1.4c-13,0-23.6,10.6-23.6,23.6c0,10.2,6.6,18.9,15.7,22.2v65.9C10.6,244.8,4,253.5,4,263.7
	c0,13,10.6,23.6,23.6,23.6c4.4,0,8.5-1.3,12-3.4l60.4,50.3c-0.9,2.6-1.5,5.3-1.5,8.1c0,10.2,6.6,18.9,15.7,22.2v81.6
	c-9.1,3.3-15.7,11.9-15.7,22.2c0,13,10.6,23.6,23.6,23.6s23.6-10.6,23.6-23.6c0-10.2-6.6-18.9-15.7-22.2v-81.6
	c9-3.2,15.5-11.7,15.7-21.7l70.6-23.5l9.4,28.2c-5.5,4.3-9.1,11-9.1,18.5c0,10.2,6.6,18.9,15.7,22.2v58
	c-9.1,3.3-15.7,11.9-15.7,22.2c0,13,10.6,23.6,23.6,23.6c13,0,23.6-10.6,23.6-23.6c0-10.2-6.6-18.9-15.7-22.2v-58
	c8.7-3.1,15-11.1,15.6-20.7l67.6-19.3c4.3,6,11.3,9.9,19.2,9.9c13,0,23.6-10.6,23.6-23.6c0-7-3.2-13.3-8.1-17.6l15-37.6
	c0.3,0,0.6,0.1,0.9,0.1c11.7,0,21.4-8.6,23.2-19.8l43-7.8c4.1,7.1,11.6,11.9,20.4,11.9c13,0,23.6-10.6,23.6-23.6
	C492,229.9,485.4,221.2,476.3,218z M468.4,137.8c4.3,0,7.9,3.5,7.9,7.9c0,4.3-3.5,7.9-7.9,7.9c-4.3,0-7.9-3.5-7.9-7.9
	C460.5,141.3,464.1,137.8,468.4,137.8z M448.4,133.3c-0.7,1.1-1.3,2.2-1.8,3.4l-42-2.1l5.8-44.6c1-0.2,1.8-0.5,2.8-0.9L448.4,133.3z
	 M405.4,59.1c4.3,0,7.9,3.5,7.9,7.9s-3.5,7.9-7.9,7.9c-4.3,0-7.9-3.5-7.9-7.9S401.1,59.1,405.4,59.1z M326.7,19.7
	c4.3,0,7.9,3.5,7.9,7.9s-3.5,7.9-7.9,7.9c-4.3,0-7.9-3.5-7.9-7.9S322.4,19.7,326.7,19.7z M313.6,47.2c3.7,2.5,8.2,4,13.1,4
	c6.4,0,12.1-2.6,16.4-6.6l39,19.5c-0.1,0.9-0.3,1.9-0.3,2.9c0,9.2,5.3,17,12.9,20.9l-6,45.9l-55.3-2.8c-2.9-9.7-11.9-16.9-22.5-16.9
	c-3.9,0-7.6,1-10.8,2.7l-35.4-33L313.6,47.2z M200.8,224.4c-6,0-11.5,2.3-15.7,6.1l-63.6-34.7l35.8-29.9c3.5,2.1,7.6,3.4,12,3.4
	c6.2,0,11.8-2.5,16.1-6.4l58.9,30.5l-33.4,33.4C207.8,225.3,204.4,224.4,200.8,224.4z M208.6,248c0,4.3-3.5,7.9-7.9,7.9
	c-4.3,0-7.9-3.5-7.9-7.9c0-4.3,3.5-7.9,7.9-7.9C205.1,240.1,208.6,243.7,208.6,248z M174.3,242.5L52,253.6l56.4-47L174.3,242.5z
	 M161.4,145.7c0-4.3,3.5-7.9,7.9-7.9c4.3,0,7.9,3.5,7.9,7.9c0,4.3-3.5,7.9-7.9,7.9C164.9,153.5,161.4,150,161.4,145.7z M192.6,148.9
	c0.1-1.1,0.3-2.1,0.3-3.2c0-2.4-0.5-4.8-1.2-7L252,93.5l37.4,34.9c-1.3,2.9-2,6.1-2,9.4c0,3.6,0.9,7,2.4,10.1l-33.8,33.8
	L192.6,148.9z M294,165.9l-9.5,30.7l-13.9-7.2L294,165.9z M294,219.2l64.6,33.5c-0.1,0.9-0.3,1.8-0.3,2.8L274,283.5L294,219.2z
	 M298.7,203.9l13.2-42.6c9.4-0.4,17.5-6.3,20.9-14.5l53.9,2.7l-10.9,83.7c-3.8,1-7.3,2.9-10.1,5.5L298.7,203.9z M303.1,137.8
	c0-4.3,3.5-7.9,7.9-7.9c4.3,0,7.9,3.5,7.9,7.9c0,4.3-3.5,7.9-7.9,7.9C306.6,145.7,303.1,142.1,303.1,137.8z M215.1,35.5h88l-50,37.5
	l-38.5-36C214.7,36.5,214.9,36,215.1,35.5z M192.9,19.7c4.3,0,7.9,3.5,7.9,7.9s-3.5,7.9-7.9,7.9c-4.3,0-7.9-3.5-7.9-7.9
	S188.6,19.7,192.9,19.7z M114,72.7L176,44c4.3,4.4,10.3,7.2,16.9,7.2c3.9,0,7.6-1.1,10.8-2.7l36.6,34.1L182.4,126
	c-3.7-2.5-8.2-4-13.1-4c-4.1,0-7.8,1.1-11.2,3l-45.7-41.1c1.2-2.8,1.8-5.8,1.8-9C114.2,74.1,114,73.4,114,72.7z M90.6,66.9
	c4.3,0,7.9,3.5,7.9,7.9s-3.5,7.9-7.9,7.9c-4.3,0-7.9-3.5-7.9-7.9S86.2,66.9,90.6,66.9z M82.9,97c2.4,0.8,5,1.4,7.7,1.4
	c4.1,0,7.8-1.1,11.2-3l45.7,41.2c-1.2,2.8-1.8,5.8-1.8,9c0,2.9,0.6,5.6,1.5,8.2l-40.6,33.8l-55.8-30.4c0.2-1.2,0.4-2.4,0.4-3.7
	c0-4.6-1.4-8.8-3.6-12.4L82.9,97z M27.6,145.7c4.3,0,7.9,3.5,7.9,7.9c0,4.3-3.5,7.9-7.9,7.9c-4.3,0-7.9-3.5-7.9-7.9
	C19.7,149.2,23.3,145.7,27.6,145.7z M27.6,271.6c-4.3,0-7.9-3.5-7.9-7.9c0-4.3,3.5-7.9,7.9-7.9c4.3,0,7.9,3.5,7.9,7.9
	C35.5,268.1,31.9,271.6,27.6,271.6z M35.5,241.6v-65.9c2.9-1,5.6-2.6,7.8-4.6l50.3,27.4l-54,45C38.3,242.7,36.9,242.1,35.5,241.6z
	 M122.1,476.3c-4.3,0-7.9-3.5-7.9-7.9c0-4.3,3.5-7.9,7.9-7.9c4.3,0,7.9,3.5,7.9,7.9C129.9,472.8,126.4,476.3,122.1,476.3z
	 M122.1,350.3c-4.3,0-7.9-3.5-7.9-7.9c0-4.3,3.5-7.9,7.9-7.9c4.3,0,7.9,3.5,7.9,7.9C129.9,346.8,126.4,350.3,122.1,350.3z
	 M140.6,328c-4.3-5.5-11-9.1-18.5-9.1c-4.4,0-8.5,1.3-12,3.4l-60.4-50.3c0.3-0.8,0.5-1.5,0.7-2.3l129-11.7
	c3.7,8,11.6,13.5,20.9,13.7l10.9,32.9L140.6,328z M215.2,266.5c5.5-4.3,9.1-11,9.1-18.5c0-3.6-0.9-7-2.4-10.1l36.9-36.9l20.9,10.8
	l-24.2,77.8l-29.4,9.8L215.2,266.5z M240.1,476.3c-4.3,0-7.9-3.5-7.9-7.9c0-4.3,3.5-7.9,7.9-7.9c4.3,0,7.9,3.5,7.9,7.9
	C248,472.8,244.5,476.3,240.1,476.3z M240.1,374c-4.3,0-7.9-3.5-7.9-7.9c0-4.3,3.5-7.9,7.9-7.9c4.3,0,7.9,3.5,7.9,7.9
	C248,370.4,244.5,374,240.1,374z M239.9,340.4l-8.7-26l18.7-6.2L239.9,340.4z M350.3,342.5c-4.3,0-7.9-3.5-7.9-7.9
	c0-4.3,3.5-7.9,7.9-7.9c4.3,0,7.9,3.5,7.9,7.9C358.2,338.9,354.7,342.5,350.3,342.5z M351.3,311.1c-0.3,0-0.6-0.1-0.9-0.1
	c-12.5,0-22.7,9.8-23.5,22.1l-67.6,19.3c-1.4-2-3.1-3.7-5.1-5.2l14-45.2l95-31.7c0.9,1.1,1.9,2.2,3,3.2L351.3,311.1z M381.8,263.7
	c-4.3,0-7.9-3.5-7.9-7.9s3.5-7.9,7.9-7.9c4.3,0,7.9,3.5,7.9,7.9S386.2,263.7,381.8,263.7z M445.2,236.4l-43,7.8
	c-2.5-4.3-6.2-7.7-10.7-9.8l11-84.2l43.4,2.2c2.2,7.2,7.6,12.9,14.6,15.4V218C452.6,220.8,446.6,227.8,445.2,236.4z M468.4,248
	c-4.3,0-7.9-3.5-7.9-7.9c0-4.3,3.5-7.9,7.9-7.9c4.3,0,7.9,3.5,7.9,7.9C476.3,244.5,472.8,248,468.4,248z"/>
</svg>
